<?xml version="1.0" encoding="utf-8"?>
<!-- Generator: Adobe Illustrator 27.6.1, SVG Export Plug-In . SVG Version: 6.00 Build 0)  -->
<svg version="1.1" id="Layer_1" xmlns="http://www.w3.org/2000/svg" xmlns:xlink="http://www.w3.org/1999/xlink" x="0px" y="0px"
	 viewBox="0 0 0 0" style="enable-background:new 0 0 500 500;" xml:space="preserve">
<g>
	<g>
		<g>
			<path d="M800,399c0-55.9-59-105.6-162.3-137.3C662,156.4,648.5,80.5,600,52.5c-48.4-28-120.9-1.7-200,71.9
				c-79.1-73.6-151.5-99.9-200-71.9c-21.7,12.5-36.8,35.5-44.1,66.7c-21.6,4-38,22.9-38,45.6c0,21.7,15,40,35.2,45
				c1.9,16.5,5,33.8,9.1,51.8C59,293.4,0,343,0,399c0,55.9,59,105.6,162.3,137.2C138,641.5,151.6,717.4,200,745.4
				c12.5,7.2,26.8,10.8,42.6,10.8c16.5,0,34.6-4,53.8-11.9c8.4,8.7,20.2,14.1,33.2,14.1c25.6,0,46.3-20.8,46.3-46.3
				c0-5.4-0.9-10.6-2.6-15.4c8.9-7.2,17.8-14.9,26.7-23.2c58.3,54.3,113.1,82.9,157.2,82.8c15.7,0,30.1-3.6,42.8-10.9
				c48.4-28,62-103.8,37.7-209.1c25.6-7.9,48.8-17,69.2-27.2c8.2,7.3,19,11.8,30.9,11.8c25.6,0,46.3-20.8,46.3-46.3
				c0-7.3-1.7-14.2-4.7-20.4C793.1,436.6,800,418.1,800,399z M586.2,76.4c36,20.8,45.2,88.3,24.9,177.8
				c-35.8-9.3-74.7-16-115.9-20.1c-24.2-33.6-49.5-63.9-75.4-90.3C487.2,81.4,550.2,55.7,586.2,76.4z M225.3,432
				c8.7,17.4,18,34.7,27.8,51.7c9.9,17.1,20.2,33.8,30.9,49.9c-31.1-4-60.7-9.6-88.4-16.8C203.2,489.5,213.2,461,225.3,432z
				 M225.3,365.9c-12.1-29-22.1-57.5-29.7-84.9c27.7-7.1,57.2-12.7,88.4-16.8c-10.7,16.1-21,32.8-30.9,49.9
				C243.3,331.2,234,348.5,225.3,365.9z M277,470c-13.4-23.3-25.9-47.1-37.1-71c11.2-23.9,23.6-47.7,37.1-71
				c13.6-23.5,28-46.2,43-67.6c52.3-4.5,107.7-4.5,160.1,0c15,21.4,29.4,44.1,43,67.6c13.5,23.3,25.9,47.2,37.1,71
				c-11.2,23.9-23.6,47.8-37.1,71c-13.6,23.5-28,46.2-43,67.6c-52.4,4.5-107.8,4.5-160.1,0C305,516.2,290.6,493.5,277,470z
				 M546.9,483.8c9.8-17,19.1-34.3,27.8-51.7c12.1,29,22,57.4,29.7,84.9c-27.6,7.1-57.2,12.7-88.4,16.8
				C526.7,517.6,537,500.9,546.9,483.8z M574.7,365.9c-8.7-17.4-18-34.7-27.8-51.8c-9.9-17.1-20.2-33.8-30.9-49.9
				c31.1,4,60.7,9.6,88.4,16.8C596.8,308.5,586.8,336.9,574.7,365.9z M400,162.9c20,20.4,39.7,43.2,58.7,68.2
				c-38.8-2.3-78.7-2.3-117.4,0C360.3,206.2,380,183.3,400,162.9z M183.4,122.7c5.7-22.3,15.9-37.8,30.4-46.2
				c36-20.8,99.1,5,166.4,67.3c-26,26.5-51.3,56.8-75.4,90.3c-41.2,4.1-80.1,10.9-115.9,20.2c-3.6-16-6.4-31.4-8.1-46.1
				c17.4-6.7,29.9-23.6,29.9-43.3C210.6,146.1,199.4,130,183.4,122.7z M145.5,164.9c0-10.3,8.4-18.8,18.8-18.8s18.8,8.4,18.8,18.8
				c0,10.3-8.4,18.8-18.8,18.8S145.5,175.2,145.5,164.9z M27.6,399c0-41.5,53.8-83.3,141.5-110.5c9.9,35.6,23.5,72.7,40.5,110.5
				c-17,37.8-30.6,74.8-40.5,110.5C81.4,482.2,27.6,440.5,27.6,399z M329.6,730.8c-10.3,0-18.8-8.4-18.8-18.8
				c0-10.3,8.4-18.8,18.8-18.8s18.8,8.4,18.8,18.8C348.4,722.4,340,730.8,329.6,730.8z M356.8,674.6c-7.6-5.6-17-8.9-27.2-8.9
				c-25.6,0-46.3,20.8-46.3,46.3c0,2.6,0.2,5.1,0.6,7.6c-21.9,8.6-48.9,14.1-70.1,1.8c-36-20.8-45.2-88.3-24.9-177.8
				c35.9,9.3,74.8,16,115.9,20.2c24.1,33.6,49.5,63.9,75.4,90.4C372.4,661.4,364.6,668.2,356.8,674.6z M400,635
				c-20-20.4-39.7-43.2-58.7-68.2c19.4,1.2,39,1.8,58.7,1.8c19.7,0,39.3-0.6,58.7-1.8C439.7,591.8,420,614.6,400,635z M586.2,721.5
				c-36,20.8-99-5-166.4-67.3c26-26.4,51.3-56.8,75.4-90.3c41.2-4.1,80.1-10.9,115.9-20.1C631.4,633.2,622.2,700.7,586.2,721.5z
				 M737.8,493.3c-10.3,0-18.8-8.4-18.8-18.8s8.4-18.8,18.8-18.8c10.3,0,18.8,8.4,18.8,18.8C756.6,484.9,748.2,493.3,737.8,493.3z
				 M760.1,433.9c-6.6-3.6-14.2-5.7-22.3-5.7c-25.6,0-46.3,20.8-46.3,46.3c0,3.7,0.4,7.3,1.3,10.8c-18.2,9-38.9,17.1-61.8,24.2
				c-9.9-35.7-23.5-72.7-40.5-110.5c17-37.8,30.6-74.8,40.5-110.5c87.6,27.2,141.5,69,141.5,110.5
				C772.4,410.7,768.3,422.4,760.1,433.9z"/>
		</g>
	</g>
</g>
</svg>
