<?xml version="1.0" encoding="utf-8"?>
<svg version="1.1" id="Layer_1" xmlns="http://www.w3.org/2000/svg" xmlns:xlink="http://www.w3.org/1999/xlink" x="0px" y="0px"
	 viewBox="0 0 1619.848 1635.788" enable-background="new 0 0 1619.848 1635.788" xml:space="preserve">
<g>
	<g>
		<g>
			<line fill="none" stroke="#000000" stroke-miterlimit="10" x1="808.298" y1="19.312" x2="808.298" y2="19.312"/>
			<path fill="none" stroke="#000000" stroke-miterlimit="10" d="M585.687,1586.135c15.926,6.123,47.424,7.083,90.133,8.979
				c51.685,2.291,108.922,3.026,167.737,2.458c56.421-0.547,106.64-2.107,147.083-5.503c28.152-2.367,43.914-8.832,40.27-10.24
				c-15.926-6.123-47.424-7.083-90.133-8.979c-51.685-2.291-108.922-3.026-167.737-2.458c-56.421,0.547-106.64,2.107-147.083,5.502
				C597.805,1578.262,582.043,1584.727,585.687,1586.135"/>
			<path fill="none" stroke="#000000" stroke-miterlimit="10" d="M381.111,1493.698c12.069,4.646,32.022,7.036,58.41,9.666
				c32.612,3.248,71.042,5.635,114.553,7.565c99.183,4.396,209.02,5.806,321.884,4.718c55.183-0.534,108.268-1.694,158.327-3.566
				c46.212-1.73,87.776-3.957,123.923-6.993c30.224-2.541,54.081-5.146,70.652-9.356c9.854-2.508,12.424-8.057,6.625-10.294
				c-12.069-4.646-32.022-7.036-58.41-9.666c-32.613-3.248-71.042-5.635-114.553-7.565c-99.183-4.396-209.02-5.806-321.884-4.718
				c-55.183,0.534-108.268,1.694-158.327,3.566c-46.212,1.73-87.776,3.957-123.923,6.993c-30.224,2.541-54.081,5.146-70.652,9.356
				C377.882,1485.911,375.312,1491.46,381.111,1493.698"/>
			<path fill="none" stroke="#000000" stroke-miterlimit="10" d="M211.142,1346.505c16.871,6.495,44.762,9.835,81.65,13.511
				c45.588,4.54,99.309,7.877,160.131,10.575c138.646,6.144,292.184,8.116,449.955,6.595c77.139-0.747,151.345-2.368,221.322-4.985
				c64.599-2.418,122.701-5.532,173.229-9.776c42.249-3.552,75.598-7.193,98.763-13.079c13.774-3.505,17.367-11.262,9.262-14.39
				c-16.871-6.495-44.762-9.835-81.65-13.511c-45.588-4.54-99.308-7.877-160.131-10.575c-138.646-6.144-292.184-8.116-449.955-6.595
				c-77.139,0.747-151.345,2.368-221.322,4.985c-64.599,2.418-122.701,5.532-173.229,9.776
				c-42.249,3.552-75.598,7.193-98.763,13.079C206.63,1335.62,203.037,1343.377,211.142,1346.505"/>
			<path fill="none" stroke="#000000" stroke-miterlimit="10" d="M89.552,1156.482c20.306,7.817,53.877,11.837,98.275,16.262
				c54.871,5.464,119.529,9.48,192.736,12.729c80.484,3.568,166.942,5.923,257.855,7.257c93.809,1.374,188.932,1.596,283.718,0.681
				c92.846-0.899,182.162-2.85,266.387-6c77.753-2.91,147.684-6.658,208.501-11.766c50.852-4.275,90.991-8.658,118.873-15.742
				c16.579-4.219,20.903-13.555,11.147-17.321c-20.306-7.817-53.877-11.837-98.275-16.262
				c-54.871-5.464-119.529-9.48-192.736-12.729c-80.484-3.568-166.942-5.923-257.855-7.257
				c-93.809-1.374-188.932-1.596-283.718-0.681c-92.846,0.899-182.162,2.85-266.387,6c-77.753,2.91-147.684,6.658-208.501,11.766
				c-50.852,4.275-90.991,8.658-118.873,15.742C84.121,1143.381,79.796,1152.717,89.552,1156.482"/>
			<path fill="none" stroke="#000000" stroke-miterlimit="10" d="M26.19,939.022c22.096,8.506,58.626,12.881,106.939,17.696
				c59.708,5.946,130.067,10.316,209.727,13.851c87.579,3.883,181.659,6.446,280.587,7.897
				c102.078,1.495,205.587,1.737,308.729,0.741c101.031-0.978,198.22-3.101,289.87-6.529c84.607-3.167,160.703-7.245,226.882-12.804
				c55.335-4.651,99.012-9.421,129.352-17.129c18.04-4.591,22.746-14.75,12.13-18.847c-22.097-8.506-58.626-12.881-106.939-17.696
				c-59.708-5.946-130.067-10.316-209.727-13.851c-87.579-3.883-181.659-6.446-280.587-7.897
				c-102.078-1.495-205.587-1.737-308.729-0.741c-101.031,0.978-198.22,3.101-289.87,6.529
				c-84.607,3.167-160.704,7.245-226.882,12.804c-55.335,4.651-99.012,9.421-129.352,17.129
				C20.28,924.766,15.575,934.925,26.19,939.022"/>
			<path fill="none" stroke="#000000" stroke-miterlimit="10" d="M26.19,711.743c22.096,8.506,58.626,12.881,106.939,17.696
				c59.708,5.946,130.067,10.316,209.727,13.851c87.579,3.883,181.659,6.446,280.587,7.897
				c102.078,1.495,205.587,1.737,308.729,0.741c101.031-0.978,198.22-3.101,289.87-6.528c84.607-3.167,160.703-7.245,226.882-12.804
				c55.335-4.651,99.012-9.421,129.352-17.129c18.04-4.591,22.746-14.75,12.13-18.847c-22.097-8.506-58.626-12.881-106.939-17.696
				c-59.708-5.946-130.067-10.316-209.727-13.851c-87.579-3.883-181.659-6.446-280.587-7.897
				c-102.078-1.495-205.587-1.737-308.729-0.74c-101.031,0.978-198.22,3.101-289.87,6.528
				c-84.607,3.167-160.704,7.245-226.882,12.804c-55.335,4.651-99.012,9.421-129.352,17.129
				C20.28,697.487,15.575,707.646,26.19,711.743"/>
			<path fill="none" stroke="#000000" stroke-miterlimit="10" d="M89.552,493.057c20.306,7.817,53.877,11.838,98.275,16.263
				c54.871,5.464,119.529,9.48,192.736,12.729c80.484,3.568,166.942,5.923,257.855,7.257c93.809,1.374,188.932,1.596,283.718,0.68
				c92.846-0.899,182.162-2.85,266.387-6c77.753-2.91,147.684-6.658,208.501-11.766c50.852-4.275,90.991-8.658,118.873-15.742
				c16.579-4.219,20.903-13.555,11.147-17.321c-20.306-7.817-53.877-11.837-98.275-16.263
				c-54.871-5.464-119.529-9.48-192.736-12.729c-80.484-3.568-166.942-5.923-257.855-7.257
				c-93.809-1.374-188.932-1.596-283.718-0.681c-92.846,0.899-182.162,2.85-266.387,6c-77.753,2.91-147.684,6.658-208.501,11.766
				c-50.852,4.275-90.991,8.658-118.873,15.742C84.121,479.956,79.796,489.292,89.552,493.057"/>
			<path fill="none" stroke="#000000" stroke-miterlimit="10" d="M211.142,300.683c16.871,6.495,44.762,9.835,81.65,13.511
				c45.588,4.54,99.309,7.877,160.131,10.575c138.646,6.144,292.184,8.116,449.955,6.595c77.139-0.747,151.345-2.368,221.322-4.985
				c64.599-2.418,122.701-5.532,173.229-9.776c42.249-3.552,75.598-7.193,98.763-13.079c13.774-3.506,17.367-11.262,9.262-14.39
				c-16.871-6.495-44.762-9.835-81.65-13.511c-45.588-4.54-99.308-7.876-160.131-10.575c-138.646-6.144-292.184-8.116-449.955-6.595
				c-77.139,0.747-151.345,2.368-221.322,4.985c-64.599,2.418-122.701,5.532-173.229,9.776
				c-42.249,3.552-75.598,7.193-98.763,13.079C206.63,289.798,203.037,297.554,211.142,300.683"/>
			<path fill="none" stroke="#000000" stroke-miterlimit="10" d="M381.111,150.203c12.069,4.646,32.022,7.036,58.41,9.666
				c32.612,3.247,71.042,5.635,114.553,7.565c99.183,4.396,209.02,5.806,321.884,4.718c55.183-0.534,108.268-1.694,158.327-3.566
				c46.212-1.73,87.776-3.957,123.923-6.993c30.224-2.541,54.081-5.146,70.652-9.356c9.854-2.508,12.424-8.057,6.625-10.294
				c-12.069-4.646-32.022-7.036-58.41-9.666c-32.613-3.247-71.042-5.635-114.553-7.565c-99.183-4.396-209.02-5.806-321.884-4.718
				c-55.183,0.534-108.268,1.694-158.327,3.566c-46.212,1.73-87.776,3.957-123.923,6.993c-30.224,2.541-54.081,5.146-70.652,9.356
				C377.882,142.416,375.312,147.965,381.111,150.203"/>
			<path fill="none" stroke="#000000" stroke-miterlimit="10" d="M585.687,53.81c15.926,6.123,47.424,7.083,90.133,8.979
				c51.685,2.291,108.922,3.026,167.737,2.458c56.421-0.547,106.64-2.107,147.083-5.502c28.152-2.367,43.914-8.832,40.27-10.24
				c-15.926-6.123-47.424-7.083-90.133-8.979c-51.685-2.291-108.922-3.026-167.737-2.458c-56.421,0.547-106.64,2.107-147.083,5.502
				C597.805,45.937,582.043,52.401,585.687,53.81"/>
			<line fill="none" stroke="#000000" stroke-miterlimit="10" x1="808.298" y1="1616.328" x2="808.298" y2="1616.328"/>
			<path fill="none" stroke="#000000" stroke-miterlimit="10" d="M808.298,19.312c-206.568,2.079-413.027,90.752-558.721,239.28
				C103.608,407.633,18.229,616.786,18.148,825.46c0.081,208.157,85.409,416.123,231.43,562.393
				c145.738,145.754,352.673,230.386,558.721,228.475"/>
			<path fill="none" stroke="#000000" stroke-miterlimit="10" d="M808.298,19.312C617.525,14.275,424.189,97.16,290.43,239.294
				C153.7,384.818,75.996,590.663,75.921,798.168c0.075,208.835,77.979,417.749,214.508,570.386
				c133.716,149.263,325.656,242.534,517.869,247.774"/>
			<path fill="none" stroke="#000000" stroke-miterlimit="10" d="M808.298,19.312c-57.482-5.272-117.541,11.349-169.176,45.206
				c-55.485,36.427-104.06,92.447-143.421,159.889c-42.391,72.695-74.187,157.897-95.831,250.231
				c-22.559,96.351-33.64,198.53-33.651,302.477c0.045,208.601,43.007,412.271,129.482,576.552
				c39.56,75.07,87.758,139.507,143.421,186.3c51.31,43.092,110.459,70.933,169.176,76.36"/>
			<path fill="none" stroke="#000000" stroke-miterlimit="10" d="M808.298,19.312c-0.356-1.518-3.255,14.556-4.372,42.095
				c-1.638,40.457-2.729,93.184-3.706,157.252c-1.132,74.316-1.924,157.615-2.476,248.469c-0.589,96.853-0.869,198.05-0.87,301.858
				c0,104.644,0.286,208.334,0.87,309.293c0.558,96.504,1.361,186.901,2.476,269.641c0.994,73.673,2.144,137.018,3.706,188.938
				c1.193,39.63,1.354,66.529,4.372,79.471"/>
			<path fill="none" stroke="#000000" stroke-miterlimit="10" d="M808.298,19.312c54.951-5.367,112.621,11.279,161.821,44.917
				c53.282,36.475,99.63,92.437,137.185,159.645c40.635,72.78,70.982,157.857,91.664,250.067
				c21.595,96.387,32.177,198.485,32.188,302.42c-0.043,208.58-40.882,411.838-123.852,576.773
				c-37.768,74.994-83.758,139.494-137.185,186.545c-48.898,43.02-105.557,71.111-161.821,76.648"/>
			<path fill="none" stroke="#000000" stroke-miterlimit="10" d="M808.298,19.312c188.285-5.367,379.361,77.429,511.158,219.084
				c135.191,145.539,211.655,351.079,211.728,558.503c-0.074,208.84-76.763,417.651-211.728,570.758
				c-131.763,149.246-321.32,243.094-511.158,248.671"/>
			<path fill="none" stroke="#000000" stroke-miterlimit="10" d="M808.298,19.312c207.354,1.718,414.646,89.949,561.02,238.304
				c146.498,148.713,232.301,357.822,232.382,566.464c-0.081,208.218-85.843,416.355-232.382,562.797
				c-146.411,146.083-354.09,231.002-561.02,229.451"/>
			<path fill="none" stroke="#000000" stroke-miterlimit="10" d="M808.298,19.312c162.08,8.413,323.492,108.047,432.763,256.118
				c116.376,157.937,179.193,365.058,179.256,573.842c-0.062,206.652-62.333,408.756-179.256,555.418
				c-109.081,136.602-273.423,219.744-432.763,211.637"/>
			<path fill="none" stroke="#000000" stroke-miterlimit="10" d="M808.298,19.312c32.806,6.499,64.398,37.075,90.437,78.639
				c31.109,49.706,55.914,114.034,76.669,188.232c22.891,81.894,39.654,172.517,51.229,269.169
				c12.039,100.639,17.983,204.483,17.989,309.128c-0.006,103.847-5.848,205.33-17.989,302.024
				c-11.474,91.282-28.075,175.249-51.229,248.94c-20.504,65.205-45.176,120.073-76.669,157.957
				c-25.824,31.024-60.162,48.884-90.437,42.927"/>
			<path fill="none" stroke="#000000" stroke-miterlimit="10" d="M808.298,19.312c-30.124,6.633-58.587,37.468-82.048,78.789
				c-28.374,50.022-50.758,114.246-69.557,188.36c-20.794,82.038-35.98,172.628-46.477,269.254
				c-10.926,100.696-16.315,204.513-16.32,309.157c0.005,103.84,5.3,205.273,16.32,301.994
				c10.404,91.207,25.432,175.064,46.477,248.855c18.558,65.016,40.734,119.666,69.557,157.83
				c23.166,30.634,54.701,48.758,82.048,42.777"/>
			<path fill="none" stroke="#000000" stroke-miterlimit="10" d="M808.298,19.312C649.955,28.016,492.4,128.354,386.115,276.175
				C272.299,434.71,211.303,641.556,211.241,850.326c0.061,206.566,60.464,408.206,174.874,555.109
				c106.054,135.951,266.74,219.273,422.183,210.892"/>
			<path fill="none" stroke="#000000" stroke-miterlimit="10" d="M808.298,19.312c-206.568,2.079-413.027,90.752-558.721,239.28
				C103.608,407.633,18.229,616.786,18.148,825.46c0.081,208.157,85.409,416.123,231.43,562.393
				c145.738,145.754,352.673,230.386,558.721,228.475"/>
		</g>
	</g>
</g>
</svg>
